<?xml version="1.0" encoding="utf-8"?>
<!-- Generator: Adobe Illustrator 19.2.1, SVG Export Plug-In . SVG Version: 6.00 Build 0)  -->
<svg version="1.1" id="Layer_1" xmlns="http://www.w3.org/2000/svg" xmlns:xlink="http://www.w3.org/1999/xlink" x="0px" y="0px"
	 viewBox="0 0 564 97" style="enable-background:new 0 0 564 97;" xml:space="preserve">
<style type="text/css">
	.st0{fill:#272626;}
	.st1{fill-rule:evenodd;clip-rule:evenodd;fill:#272626;}
</style>
<g>
	<path class="st0" d="M225.7,51.2c0,2.9,0-1,0,1.9c3.4,0,5.5,0.5,5.5,5.1v7.6c-0.2,4.2-4.4,6.4-11.4,6.4c-7.1,0-20.5-4.9-20.5-23.4
		c0-13.3,9.3-24.1,20.6-24.1c9.4,0,14.9,5.5,17.5,14.7h1.7V28.7c-5.4-4.3-12.7-5.9-19.5-5.9c-16.2,0-28.5,11.4-28.5,26.4
		c0,6.1,2.4,12.2,6.6,16.6c5.2,5.4,12.9,8.3,22.3,8.3c6.3,0,12.3-1.6,17.9-4.9v-11c0.1-5.2,0.7-5.1,4.4-5.1c0-1.6,0,1.6,0-1.9
		C236.6,51.2,232,51.2,225.7,51.2z"/>
	<line class="st0" x1="23.1" y1="23.4" x2="6.9" y2="23.4"/>
	<path class="st0" d="M6.9,23.4v1.9c5.2,0,4.5,0.9,4.5,6.9v32.5c0,6,0.7,6.9-4.5,6.9v1.9h16v-1.9c-5.1,0-4.4-0.9-4.4-6.9V52.3
		l3.4-3.1l12.9,12.8c4.3,4.3,5.8,6.8,5.8,7.7c0,1.3-0.2,2-3.2,2v1.9h19.7v-1.9c-2.5-0.1-3.9-0.5-8-4.7L26.6,44.8l16-16.3
		c2.7-2.7,3.3-3.6,7-3.6v-1.6H34.2c0,0,0,1,0,1.9c3.4-0.1,3.5,1.1,3.5,2.8c0,2.1-2.3,5.2-7.3,10L18.6,49.4V32.2c0-6-0.7-6.9,4.5-6.9
		c0-1.6,0-1.9,0-1.9"/>
	<path class="st0" d="M93.5,73.4v-1.9c-5.1,0-4.4-6.9-4.4-6.9V32.2c0,0-0.6-6.9,5.5-6.9v-1.9H77.5v1.9c5.2,0,4.5,6.9,4.5,6.9v32.5
		c0,0,0.7,6.9-4.5,6.9v1.9H93.5"/>
	<path class="st0" d="M159.9,23.4v1.9c6.2,0.8,5.7,2.6,5.7,7c0,7,0,29.8,0,29.8L130,23.4h-11.1v1.9c5.6,0.5,6.4,1.5,6.4,7.1v29.3
		c0,8.9-0.1,9.4-5.2,10v1.9h13.1v-1.9c-5.9-0.6-5.3-1.3-5.3-10V31.3l37.6,42.2h2.7c0,0,0-37.7,0-41.2c0-4.7,0.2-6.3,5.6-7v-1.9
		H159.9z"/>
	<path class="st0" d="M226.5,51.2"/>
	<path class="st0" d="M282.7,72.2c-7.6,0-11.8-6.3-14.4-13.5c-2.9,0,0.6,0-1.5,0c0.3,2.9,2.1,12.9,2.1,12.9s3.3,0.9,6.8,1.6
		c17.2,3.5,24.2-6.2,24.2-14c0-8.2-7-11.4-13.8-14.5c-6.2-2.8-12-5.5-12-11.7c0-5.7,5.5-8.3,9.2-8.3c5.2,0,9.1,3.8,11.5,11.1l0,0.1
		h0.1h1.3h0.2v-0.2c0-5.5,0-5.1,0-10.5C287.1,20.5,268,21.8,268,36c0,8.7,7,11.6,13.7,14.5c6.2,2.6,12.1,5.1,12.1,11.8
		C293.8,67.1,290.3,72.2,282.7,72.2"/>
	<path class="st0" d="M342.7,23.4h-20.1v1.9c6,0,5.4,0.9,5.4,6.9c0,5.9,0,26.4,0,32.5c0,6,0.7,6.9-5.1,6.9v1.9c5.4,0,17.6,0,17.6,0
		v-1.9c-6,0-5.4-0.9-5.4-6.9V32.5c0-5.9,0.9-6.9,6-6.9c6,0,13,3.1,13,11.7c0,9.8-5.1,12.9-15.1,12.9v2.2c11.4,0,22.1-4.1,22.1-15.4
		C361.2,27,351.7,23.4,342.7,23.4z"/>
	<path class="st0" d="M451.6,23.4v1.9c5.2,0,4.5,0.9,4.5,6.9v32.5c0,6,0.7,6.9-4.5,6.9v1.9h16v-1.9c-5.1,0-4.4-0.9-4.4-6.9V52.3
		l3.4-3.1l12.9,12.8c4.3,4.3,5.8,6.8,5.8,7.7c0,1.3-0.2,2-3.2,2v1.9h19.7v-1.9c-2.5-0.1-3.9-0.5-8-4.7l-22.5-22.1l16-16.3
		c2.7-2.7,3.3-3.6,7-3.6v-1.6h-15.5c0,0,0,1,0,1.9c3.4-0.1,3.5,1.1,3.5,2.8c0,2.1-2.3,5.2-7.3,10l-11.8,11.3V32.2
		c0-6-0.7-6.9,4.5-6.9c0-1.6,0-1.9,0-1.9"/>
	<path class="st0" d="M540.8,48.5c5.6,0,6.9-0.4,7.7,5.3c2,0-1.2,0,2,0c0-1.3,0,3.3,0-12.7c0,0-0.3,0-2,0c-1,5.2-1.8,4.5-8.4,4.5
		h-7.9V28.6c0-2.6,0.6-3,4.5-3h6.7c7.7,0,9.6,1.2,13.1,5.5h1.5c0-0.2-1.7-7.7-1.7-7.7s-33.2,0-36.5,0v1.9c6,0,5.3,0.9,5.3,6.9
		c0,0.1,0,32.4,0,32.5c0,5.6,0.2,6.9-6.1,6.9v1.9c5,0,41.3,0,41.3,0l2.8-10.4h-1.8c-5.4,9.1-7,8.2-13.9,8.2H537
		c-3.9,0-4.9-0.6-4.9-3.1V48.5H540.8"/>
	<path class="st1" d="M441.3,5c-3.9,1.1-12,3.8-12.2,4c0.9,0.4,0.4,0.2,1.9,0.7c-1.6,2.6-7.8,8.6-13.6,9.9c-0.9,0.2-2.2,1.5,6.4,1.7
		c-0.1,0.1-3.7,4.8-10,12.2c-3.2-2.4-7.3-3.8-12-3.8c-11.2,0-19,7.7-19,18.7c0,5.5,1.9,10.1,5.2,13.4c-8,8.2-17,16.8-26.4,24.8
		c-1.4,1.2,2,7.6,4.6,4.4c7.8-9.4,15.8-18.7,23.6-27.6c3.2,2.4,7.3,3.7,11.9,3.7c11.2,0,19-7.7,19-18.7c0-5.5-1.9-10.1-5.3-13.4
		c11.1-12,20.5-22.1,26.5-28.9C442.5,5.5,441.9,4.8,441.3,5z M389.5,48.4c0-7.5,4.5-15.9,12.2-15.9c3.7,0,6.6,2,8.7,4.8
		c-5.1,5.9-11.4,12.9-18.6,20.4C390.4,54.9,389.5,51.6,389.5,48.4z M413.9,48.4c0,7.5-4.5,15.9-12.2,15.9c-3.6,0-6.5-1.9-8.6-4.6
		c6.4-7.2,12.6-14.1,18.5-20.5C413.1,42,413.9,45.3,413.9,48.4z"/>
</g>
</svg>
