<?xml version="1.0" encoding="utf-8"?>
<!-- Generator: Adobe Illustrator 19.2.1, SVG Export Plug-In . SVG Version: 6.00 Build 0)  -->
<svg version="1.1" id="Layer_1" xmlns="http://www.w3.org/2000/svg" xmlns:xlink="http://www.w3.org/1999/xlink" x="0px" y="0px"
	 viewBox="0 0 85 90.3" style="enable-background:new 0 0 85 90.3;" xml:space="preserve">
<style type="text/css">
	.st0{fill-rule:evenodd;clip-rule:evenodd;fill:#272626;}
</style>
<path class="st0" d="M81.9,2.2c-3.9,1.1-12,3.8-12.2,4C70.6,6.6,70,6.4,71.6,7c-1.6,2.6-7.8,8.6-13.6,9.9c-0.9,0.2-2.2,1.5,6.4,1.7
	c-0.1,0.1-3.7,4.8-10,12.2c-3.2-2.4-7.3-3.8-12-3.8c-11.2,0-19,7.7-19,18.7c0,5.5,1.9,10.1,5.2,13.4c-8,8.2-17,16.8-26.4,24.8
	c-1.4,1.2,2,7.6,4.6,4.4c7.8-9.4,15.8-18.7,23.6-27.6c3.2,2.4,7.3,3.7,11.9,3.7c11.2,0,19-7.7,19-18.7c0-5.5-1.9-10.1-5.3-13.4
	c11.1-12,20.5-22.1,26.5-28.9C83.1,2.7,82.5,2,81.9,2.2z M30.2,45.6c0-7.5,4.5-15.9,12.2-15.9c3.7,0,6.6,2,8.7,4.8
	C46,40.4,39.7,47.5,32.5,54.9C31,52.1,30.2,48.8,30.2,45.6z M54.5,45.6c0,7.5-4.5,15.9-12.2,15.9c-3.6,0-6.5-1.9-8.6-4.6
	c6.4-7.2,12.6-14.1,18.5-20.5C53.7,39.2,54.5,42.5,54.5,45.6z"/>
</svg>
