<svg xmlns="http://www.w3.org/2000/svg" viewBox="0 0 85 90.3"><path d="M81.9 2.2c-3.9 1.1-12 3.8-12.2 4 .9.4.3.2 1.9.8-1.6 2.6-7.8 8.6-13.6 9.9-.9.2-2.2 1.5 6.4 1.7-.1.1-3.7 4.8-10 12.2-3.2-2.4-7.3-3.8-12-3.8-11.2 0-19 7.7-19 18.7 0 5.5 1.9 10.1 5.2 13.4-8 8.2-17 16.8-26.4 24.8-1.4 1.2 2 7.6 4.6 4.4 7.8-9.4 15.8-18.7 23.6-27.6 3.2 2.4 7.3 3.7 11.9 3.7 11.2 0 19-7.7 19-18.7 0-5.5-1.9-10.1-5.3-13.4 11.1-12 20.5-22.1 26.5-28.9.6-.7 0-1.4-.6-1.2zM30.2 45.6c0-7.5 4.5-15.9 12.2-15.9 3.7 0 6.6 2 8.7 4.8-5.1 5.9-11.4 13-18.6 20.4-1.5-2.8-2.3-6.1-2.3-9.3zm24.3 0c0 7.5-4.5 15.9-12.2 15.9-3.6 0-6.5-1.9-8.6-4.6 6.4-7.2 12.6-14.1 18.5-20.5 1.5 2.8 2.3 6.1 2.3 9.2z" fill-rule="evenodd" clip-rule="evenodd" fill="#272626"/></svg>