<svg id="Layer_1" xmlns="http://www.w3.org/2000/svg" viewBox="0 0 564 97"><style>.st0{fill:#272626}</style><path class="st0" d="M225.7 51.2v1.9c3.4 0 5.5.5 5.5 5.1v7.6c-.2 4.2-4.4 6.4-11.4 6.4-7.1 0-20.5-4.9-20.5-23.4 0-13.3 9.3-24.1 20.6-24.1 9.4 0 14.9 5.5 17.5 14.7h1.7V28.7c-5.4-4.3-12.7-5.9-19.5-5.9-16.2 0-28.5 11.4-28.5 26.4 0 6.1 2.4 12.2 6.6 16.6 5.2 5.4 12.9 8.3 22.3 8.3 6.3 0 12.3-1.6 17.9-4.9v-11c.1-5.2.7-5.1 4.4-5.1v-1.9h-16.6zM23.1 23.4H6.9M6.9 23.4v1.9c5.2 0 4.5.9 4.5 6.9v32.5c0 6 .7 6.9-4.5 6.9v1.9h16v-1.9c-5.1 0-4.4-.9-4.4-6.9V52.3l3.4-3.1L34.8 62c4.3 4.3 5.8 6.8 5.8 7.7 0 1.3-.2 2-3.2 2v1.9h19.7v-1.9c-2.5-.1-3.9-.5-8-4.7L26.6 44.8l16-16.3c2.7-2.7 3.3-3.6 7-3.6v-1.6H34.2v1.9c3.4-.1 3.5 1.1 3.5 2.8 0 2.1-2.3 5.2-7.3 10L18.6 49.4V32.2c0-6-.7-6.9 4.5-6.9v-1.9M93.5 73.4v-1.9c-5.1 0-4.4-6.9-4.4-6.9V32.2s-.6-6.9 5.5-6.9v-1.9H77.5v1.9c5.2 0 4.5 6.9 4.5 6.9v32.5s.7 6.9-4.5 6.9v1.9h16M159.9 23.4v1.9c6.2.8 5.7 2.6 5.7 7v29.8L130 23.4h-11.1v1.9c5.6.5 6.4 1.5 6.4 7.1v29.3c0 8.9-.1 9.4-5.2 10v1.9h13.1v-1.9c-5.9-.6-5.3-1.3-5.3-10V31.3l37.6 42.2h2.7V32.3c0-4.7.2-6.3 5.6-7v-1.9h-13.9zM282.7 72.2c-7.6 0-11.8-6.3-14.4-13.5h-1.5c.3 2.9 2.1 12.9 2.1 12.9s3.3.9 6.8 1.6c17.2 3.5 24.2-6.2 24.2-14 0-8.2-7-11.4-13.8-14.5-6.2-2.8-12-5.5-12-11.7 0-5.7 5.5-8.3 9.2-8.3 5.2 0 9.1 3.8 11.5 11.1v.1h1.6v-.2-10.5C287.1 20.5 268 21.8 268 36c0 8.7 7 11.6 13.7 14.5 6.2 2.6 12.1 5.1 12.1 11.8 0 4.8-3.5 9.9-11.1 9.9M342.7 23.4h-20.1v1.9c6 0 5.4.9 5.4 6.9v32.5c0 6 .7 6.9-5.1 6.9v1.9h17.6v-1.9c-6 0-5.4-.9-5.4-6.9V32.5c0-5.9.9-6.9 6-6.9 6 0 13 3.1 13 11.7 0 9.8-5.1 12.9-15.1 12.9v2.2c11.4 0 22.1-4.1 22.1-15.4.1-10-9.4-13.6-18.4-13.6zM451.6 23.4v1.9c5.2 0 4.5.9 4.5 6.9v32.5c0 6 .7 6.9-4.5 6.9v1.9h16v-1.9c-5.1 0-4.4-.9-4.4-6.9V52.3l3.4-3.1L479.5 62c4.3 4.3 5.8 6.8 5.8 7.7 0 1.3-.2 2-3.2 2v1.9h19.7v-1.9c-2.5-.1-3.9-.5-8-4.7l-22.5-22.1 16-16.3c2.7-2.7 3.3-3.6 7-3.6v-1.6h-15.5v1.9c3.4-.1 3.5 1.1 3.5 2.8 0 2.1-2.3 5.2-7.3 10l-11.8 11.3V32.2c0-6-.7-6.9 4.5-6.9v-1.9M540.8 48.5c5.6 0 6.9-.4 7.7 5.3h2V41.1h-2c-1 5.2-1.8 4.5-8.4 4.5h-7.9v-17c0-2.6.6-3 4.5-3h6.7c7.7 0 9.6 1.2 13.1 5.5h1.5c0-.2-1.7-7.7-1.7-7.7h-36.5v1.9c6 0 5.3.9 5.3 6.9v32.5c0 5.6.2 6.9-6.1 6.9v1.9h41.3l2.8-10.4h-1.8c-5.4 9.1-7 8.2-13.9 8.2H537c-3.9 0-4.9-.6-4.9-3.1V48.5h8.7"/><path d="M441.3 5c-3.9 1.1-12 3.8-12.2 4 .9.4.4.2 1.9.7-1.6 2.6-7.8 8.6-13.6 9.9-.9.2-2.2 1.5 6.4 1.7-.1.1-3.7 4.8-10 12.2-3.2-2.4-7.3-3.8-12-3.8-11.2 0-19 7.7-19 18.7 0 5.5 1.9 10.1 5.2 13.4-8 8.2-17 16.8-26.4 24.8-1.4 1.2 2 7.6 4.6 4.4 7.8-9.4 15.8-18.7 23.6-27.6 3.2 2.4 7.3 3.7 11.9 3.7 11.2 0 19-7.7 19-18.7 0-5.5-1.9-10.1-5.3-13.4 11.1-12 20.5-22.1 26.5-28.9.6-.6 0-1.3-.6-1.1zm-51.8 43.4c0-7.5 4.5-15.9 12.2-15.9 3.7 0 6.6 2 8.7 4.8-5.1 5.9-11.4 12.9-18.6 20.4-1.4-2.8-2.3-6.1-2.3-9.3zm24.4 0c0 7.5-4.5 15.9-12.2 15.9-3.6 0-6.5-1.9-8.6-4.6 6.4-7.2 12.6-14.1 18.5-20.5 1.5 2.8 2.3 6.1 2.3 9.2z" fill-rule="evenodd" clip-rule="evenodd" fill="#272626"/></svg>